<?xml version="1.0" encoding="UTF-8"?>
<svg xmlns="http://www.w3.org/2000/svg" xmlns:xlink="http://www.w3.org/1999/xlink" width="75px" height="72px" viewBox="0 0 75 72" version="1.1">
<g id="surface1">
<path style=" stroke:none;fill-rule:nonzero;fill:rgb(51.372552%,70.19608%,82.745099%);fill-opacity:1;" d="M 67.101562 21.28125 L 42.300781 21.28125 C 56.101562 14.738281 57.199219 10.566406 56.699219 8.292969 C 55.5 4.5 51 1.65625 46.699219 3.171875 C 41.101562 5.164062 39.601562 13.03125 38.101562 18.71875 C 36.101562 12.9375 34.300781 5.636719 29.898438 1.941406 C 28.601562 0.898438 26.800781 -0.238281 24.101562 0.0429688 C 20.101562 0.421875 14.300781 5.164062 16.601562 10.472656 C 18.898438 15.59375 26.300781 18.816406 31.199219 21.375 L 8.898438 21.375 C 7.300781 21.375 6 22.609375 6 24.125 L 6 34.835938 C 6 36.355469 7.300781 37.585938 8.898438 37.585938 L 9.199219 37.585938 L 9.199219 72 L 67 72 L 67 37.492188 L 67.101562 37.492188 C 68.699219 37.492188 70 36.257812 70 34.742188 L 70 24.03125 C 70 22.511719 68.699219 21.28125 67.101562 21.28125 Z M 48.398438 5.542969 C 50.5 5.257812 53.398438 6.773438 53.699219 8.578125 C 54.101562 11.230469 50.300781 13.601562 48.601562 14.644531 C 46.101562 16.253906 43.699219 17.109375 41.300781 18.53125 C 42.199219 15.023438 43.800781 6.207031 48.398438 5.542969 Z M 25.5 15.023438 C 23.300781 13.601562 19 10.851562 19.101562 7.628906 C 19.199219 4.214844 24.800781 1.371094 27.898438 3.929688 C 31.800781 7.15625 33.601562 14.453125 35 19.667969 C 31.800781 18.246094 28.699219 17.015625 25.5 15.023438 Z M 31.5 69.15625 L 12.101562 69.15625 L 12.101562 37.492188 L 31.5 37.492188 Z M 31.5 34.550781 L 9 34.550781 L 9 24.125 L 31.5 24.125 Z M 41.699219 34.550781 L 41.699219 69.15625 L 34.5 69.15625 L 34.5 24.21875 L 41.699219 24.21875 Z M 64 69.15625 L 44.601562 69.15625 L 44.601562 37.492188 L 64 37.492188 Z M 66.898438 34.550781 L 44.601562 34.550781 L 44.601562 24.125 L 66.898438 24.125 Z M 66.898438 34.550781 "/>
</g>
</svg>
