<svg width="18" height="18" viewBox="0 0 18 18" fill="none" xmlns="http://www.w3.org/2000/svg">
<path d="M8 0.5C12.1265 0.5 15.5 3.85911 15.5 7.95605C15.4999 9.72009 14.846 11.305 13.9043 12.5225L13.6348 12.8721L13.9473 13.1836L17.3027 16.5205L16.5869 17.2822L13.2529 13.9658L12.9395 13.6553L12.5918 13.9268C11.2787 14.9527 9.68689 15.5107 8 15.5107C3.87367 15.5107 0.500228 12.1524 0.5 8.05566C0.5 3.95065 3.88157 0.5 8 0.5ZM8 1.58887C4.42647 1.58887 1.5 4.49515 1.5 8.05566C1.50023 11.616 4.42661 14.5225 8 14.5225C11.5734 14.5225 14.4998 11.616 14.5 8.05566C14.5 4.49515 11.5735 1.58887 8 1.58887Z" fill="black" stroke="black"/>
</svg>
